<?xml version="1.0" encoding="UTF-8"?>
<svg id="_レイヤー_2" data-name="レイヤー 2" xmlns="http://www.w3.org/2000/svg" viewBox="0 0 80.96 50.4">
  <defs>
    <style>
      .cls-1 {
        fill: #1fa9cd;
        stroke-width: 0px;
      }
    </style>
  </defs>
  <g id="img">
    <g>
      <path class="cls-1" d="M53.73,28.05c0,.21.08.5-.02.6-.12.12-.37-.07-.58-.11-1.03-.18-2.07-.18-3.12-.13-.32.02-.65.05-.97.08-.19.02-.34-.03-.5-.14-.74-.5-1.57-.79-2.41-1.04-.92-.27-1.85-.48-2.81-.52-.23-.01-.19-.13-.16-.26.36-1.58.48-3.19.48-4.81,0-2.57-.31-5.11-.93-7.6-.09-.37-.09-.36.28-.5.75-.28,1.4-.73,2.03-1.22.13-.1.26-.2.4-.28.17-.11.35-.13.54-.03,1.77.86,3.44,1.86,4.89,3.21.36.33.68.7.98,1.08.32.41.47.87.54,1.39.21,1.5.45,3,.68,4.5.29,1.92.56,3.84.69,5.77Z"/>
      <path class="cls-1" d="M63.51,28.73c-.54,0-1.03,0-1.53,0-.82,0-1.62.11-2.35.52-.06.03-.11.05-.19.04-1.6-.4-3.24-.4-4.87-.36-.21,0-.25-.07-.26-.26-.07-2.31-.4-4.58-.77-6.86-.24-1.48-.45-2.96-.68-4.44-.02-.16.03-.22.15-.3.59-.39,1.23-.7,1.86-1.02.26-.13.51-.26.76-.4.24-.13.47-.17.69.02,1.42,1.16,2.87,2.28,4.15,3.61.49.51.72,1.1.88,1.76.39,1.63.83,3.25,1.29,4.87.26.94.55,1.86.87,2.83Z"/>
      <path class="cls-1" d="M35.66,10.11c.52.1,1,.31,1.47.53,1.6.74,3.1,1.65,4.5,2.72.37.28.47.65.56,1.04.56,2.37.86,4.77.88,7.21.01,1.59-.13,3.17-.44,4.73-.01.06-.04.13-.06.21-.69-.5-1.41-.89-2.2-1.17-.6-.21-1.21-.36-1.84-.39-.18-.01-.3-.07-.42-.19-.58-.59-1.16-1.17-1.89-1.56-.25-.14-.51-.25-.78-.36-.12-.05-.17-.08-.12-.22.46-1.27.71-2.59.85-3.93.18-1.68.21-3.35.07-5.04-.1-1.18-.28-2.35-.6-3.49,0-.01,0-.03.02-.07Z"/>
      <path class="cls-1" d="M34.74,22.54c-1.06-.8-2.03-1.62-2.65-2.78-.04-.07-.08-.12-.16-.16-1.32-.63-1.97-1.75-2.27-3.12-.03-.14-.09-.24-.2-.33-1.12-.88-1.73-2.06-2.01-3.43-.17-.85-.21-1.7-.1-2.57.02-.14.07-.2.2-.23,1.55-.4,3.12-.65,4.73-.58.84.04,1.65.16,2.43.49.17.07.27.18.32.36.36,1.24.55,2.52.64,3.8.17,2.23.04,4.45-.41,6.64-.13.63-.3,1.26-.54,1.9Z"/>
      <path class="cls-1" d="M45.8,10.32c0-1.36-.22-2.68-.75-3.94-.02-.06-.1-.12-.03-.18.03-.03.11-.01.16,0,1.05.23,2.11.47,3.15.75,2.19.59,4.32,1.33,6.39,2.25.51.23,1,.48,1.5.71.14.06.17.17.19.29.2,1.04.12,2.07-.09,3.1-.09.47-.22.93-.42,1.36-.05.11-.12.18-.23.24-.97.46-1.98.82-2.92,1.32-.11.06-.17.01-.24-.07-1.69-2.09-3.91-3.46-6.3-4.62-.43-.21-.43-.2-.42-.66,0-.18,0-.36,0-.54Z"/>
      <path class="cls-1" d="M65.41,16.05c1.61,1.28,3.15,2.57,4.68,3.85,1.56,1.31,3.07,2.66,4.67,3.93.56.45.71,1.02.43,1.81-.18.52-.42,1.03-.88,1.38-.11.09-.22.14-.37.12-1.26-.18-2.49.02-3.71.36-.37.1-.73.21-1.09.34-.15.05-.2.01-.23-.13-.36-1.34-.82-2.64-1.33-3.92-.7-1.73-1.42-3.46-2.49-5.01-.07-.1-.09-.2-.05-.32.27-.76.37-1.55.37-2.41Z"/>
      <path class="cls-1" d="M35.12,6.02c.78-.13,1.56-.17,2.33-.22,1.98-.14,3.96-.11,5.93.11.09,0,.17.04.25.04.52-.04.73.27.91.71.58,1.45.75,2.95.68,4.5,0,.13-.05.21-.15.28-.78.6-1.63,1.1-2.55,1.47-.1.04-.17.03-.25-.04-1.27-1.08-2.77-1.79-4.26-2.5-.73-.35-1.48-.66-2.28-.85-.09-.02-.16-.03-.12-.16.3-1.16.03-2.25-.48-3.34Z"/>
      <path class="cls-1" d="M57.03,10.33c.8.42,1.55.85,2.28,1.29,1.85,1.12,3.57,2.42,5.27,3.75.15.11.22.24.23.43.08.89-.05,1.75-.36,2.59-.1.28-.36.37-.61.47-.54.22-1.13.26-1.68.46-.11.04-.23.06-.32.11-.27.17-.43.1-.63-.15-.77-.98-1.73-1.77-2.68-2.57-.64-.54-1.29-1.07-1.95-1.6-.13-.11-.14-.18-.08-.35.51-1.37.71-2.78.55-4.24,0-.05,0-.09-.01-.19Z"/>
      <path class="cls-1" d="M68.39,27.98c-1.49-.03-2.97-.31-4.35.51-.2-.65-.43-1.28-.61-1.93-.45-1.61-.88-3.22-1.32-4.83-.13-.48-.23-.96-.37-1.44-.05-.17.01-.22.15-.27.54-.22,1.11-.33,1.68-.47.3-.07.6-.16.84-.34.2-.15.27-.06.37.09.43.67.81,1.38,1.15,2.11.9,1.92,1.67,3.88,2.29,5.91.06.21.11.42.17.66Z"/>
      <path class="cls-1" d="M55.61,29.49c1.13-.02,2.25.06,3.36.27.25.05.31.15.31.39-.04,1.47.31,2.84,1.17,4.05.17.24.28.55.64.63.13.03.09.39-.05.51-.14.13-.32.16-.51.17-.59.02-1.16-.06-1.74-.14-.93-.12-1.85-.29-2.76-.51-.47-.11-.91-.3-1.33-.51-.11-.05-.18-.14-.23-.25-.62-1.41-.75-2.87-.35-4.36.05-.2.13-.26.33-.26.38.01.76,0,1.15,0Z"/>
      <path class="cls-1" d="M28.81,16.36c-.84.47-1.64.95-2.39,1.52-.35.27-.7.54-.99.86-.12.13-.18.11-.29,0-.52-.48-.86-1.07-1.14-1.7-.45-.99-.74-2.04-1.16-3.04-.11-.26-.22-.53-.36-.78-.07-.13-.08-.2.03-.31,1.18-1.25,2.64-2.08,4.26-2.77-.09,1.17-.04,2.28.29,3.37.33,1.09.88,2.05,1.75,2.84Z"/>
      <path class="cls-1" d="M48.07,33.54c-.39.05-.75-.04-1.11-.12-1.45-.33-2.84-.83-4.12-1.61-.09-.06-.15-.12-.18-.23-.37-1.34-.28-2.66.13-3.98.07-.21.17-.26.37-.24,1.72.14,3.37.55,4.9,1.37.19.1.26.22.22.46-.16.87-.34,1.74-.37,2.63-.02.57.02,1.14.16,1.72Z"/>
      <path class="cls-1" d="M51.03,28.97c.78-.01,1.55.03,2.3.23.24.06.32.13.25.4-.4,1.43-.37,2.85.18,4.24.1.25,0,.28-.21.3-1.49.16-2.95-.03-4.4-.39-.38-.1-.51-.28-.58-.63-.16-.82-.09-1.64.04-2.45.07-.44.15-.88.22-1.33.03-.17.07-.26.28-.28.64-.05,1.28-.1,1.92-.1Z"/>
      <path class="cls-1" d="M62.67,29.3c.33,0,.67,0,1,0,.17,0,.23.03.24.21.1,1.49.71,2.71,1.9,3.64.12.09.23.2.33.32.09.11.2.23.12.39-.07.13-.21.15-.35.16-.39.04-.78.08-1.17.11-1.04.07-2.07.22-3.11.26-.22,0-.35-.04-.48-.21-.86-1.07-1.24-2.31-1.29-3.66-.03-.81.11-.96.93-1.1.63-.11,1.25-.13,1.89-.12Z"/>
      <path class="cls-1" d="M37.24,29.42c.09-1.2.4-2.45,1.05-3.6.11-.19.23-.27.45-.24,1.29.17,2.44.68,3.48,1.44.1.08.11.14.07.26-.43,1.27-.57,2.57-.32,3.89.07.34.06.34-.29.29-1.47-.22-2.85-.72-4.16-1.4-.31-.16-.31-.17-.29-.64Z"/>
      <path class="cls-1" d="M34.52,23.13c-.06.1-.1.18-.15.26-.62,1.05-1.28,2.07-2.05,3.02-.21.26-.39.26-.65.12-.9-.47-1.54-1.21-2.1-2.02-.17-.25-.31-.53-.48-.77-.15-.21-.13-.37.03-.57.77-.95,1.6-1.85,2.5-2.67.07-.07.13-.19.25,0,.63.97,1.48,1.71,2.39,2.39.09.07.21.13.26.24Z"/>
      <path class="cls-1" d="M35.12,23.36c.37.12.71.28,1.04.49.62.39,1.11.93,1.64,1.43.09.08.07.16.02.25-.71,1.23-1.07,2.56-1.14,3.97-.01.22-.11.17-.24.12-.8-.27-1.5-.71-2.17-1.2-.55-.4-1.07-.83-1.55-1.31-.1-.1-.13-.15-.02-.27.85-.97,1.54-2.06,2.18-3.17.17-.29.18-.31.25-.31Z"/>
      <path class="cls-1" d="M29.09,16.87c.12,0,.1.11.12.18.21.7.5,1.36.98,1.92.29.34.61.63.99.86.12.07.2.11.04.25-.95.87-1.84,1.8-2.62,2.83-.11.15-.18.07-.28.01-.86-.53-1.47-1.29-1.99-2.14-.22-.37-.39-.76-.58-1.15-.12-.25-.04-.4.13-.56.56-.53,1.18-.99,1.84-1.41.37-.24.75-.46,1.13-.68.07-.04.15-.08.24-.12Z"/>
      <path class="cls-1" d="M66.87,28.5c.47-.02.98.05,1.49.05.18,0,.26.08.31.23.13.39.31.76.55,1.1.29.41.66.73,1.11.97.42.23.44.56.04.8-.46.28-.99.35-1.5.45-.87.17-1.75.31-2.63.43-.18.02-.3-.03-.43-.14-.81-.76-1.2-1.7-1.31-2.78,0-.05,0-.1,0-.14-.04-.59-.04-.58.51-.77.59-.2,1.2-.19,1.87-.18Z"/>
      <path class="cls-1" d="M26.32,8.19c1.07-.46,2.15-.81,3.25-1.11,1.44-.39,2.9-.68,4.37-.91.56-.09.57-.1.8.42.37.81.48,1.66.33,2.54-.03.16-.06.21-.23.14-1.41-.54-2.87-.61-4.34-.46-1.04.1-2.06.28-3.06.57-.13.04-.18,0-.25-.1-.25-.37-.52-.73-.85-1.09Z"/>
      <path class="cls-1" d="M73,27.65c.27,0,.53.02.8.05.39.06.61.35.53.75-.07.37-.32.6-.63.76-.75.4-1.57.63-2.37.93-.08.03-.17.04-.24.08-.35.22-.62.07-.9-.15-.49-.39-.75-.93-.98-1.49-.05-.12,0-.16.11-.2,1.2-.41,2.42-.72,3.69-.74Z"/>
      <path class="cls-1" d="M47.24,33.73c-1.78-.24-3.46-.77-4.98-1.75-.13-.08-.24-.12-.39-.13-1.81-.08-3.47-.59-4.94-1.68-.09-.06-.17-.1-.28-.13-1.57-.33-2.91-1.1-4.04-2.21-.38-.37-.75-.69-1.27-.91-1.3-.55-2.13-1.61-2.72-2.86-.17-.35-.3-.68-.73-.8-.18-.05-.33-.19-.48-.3-1.09-.83-1.78-1.95-2.25-3.22-.04-.1-.07-.19-.15-.27-.66-.63-1.1-1.41-1.48-2.23-.56-1.22-.93-2.5-1.37-3.76-.16-.46-.34-.92-.53-1.44.14.16.24.26.33.37,1.3-1.34,2.87-2.27,4.61-2.95-.21-.33-.45-.62-.69-.92-.11-.13-.2-.13-.34-.08-1.19.48-2.28,1.11-3.17,2.05-.29.3-.54.65-.81.99-.05-.11.01-.16.04-.22.35-.85.93-1.52,1.64-2.1.85-.69,1.8-1.19,2.82-1.56.1-.04.25-.04.24-.22-.04-.89.42-1.55,1-2.17.64-.69,1.41-1.03,2.34-1,.09,0,.17,0,.26,0,.45-.04.6-.32.39-.71-.1-.19-.24-.34-.37-.5-.63-.74-1.46-1.22-2.29-1.7-1.61-.93-3.29-1.5-5.19-1.28-.98.12-1.92.31-2.74.91-1.11.81-1.9,1.84-2.2,3.2-.19.89-.12,1.78.01,2.68.29,2,1.1,3.74,2.55,5.17.07.07.17.12.19.25-.38.11-.75.23-1.13.33-1.22.34-2.45.44-3.71.17-.96-.2-1.94-.34-2.93-.36-2.68-.06-5.29.24-7.82,1.22-2.36.91-3.81,2.47-4.4,4.97.16-.16.32-.16.47-.19.22-.04.42-.07.55.17.13.24.07.46-.09.63-.31.33-.55.7-.75,1.11-.08.16-.21.27-.43.13.03.56.03,1.1.16,1.62.06.24.19.31.42.22.27-.11.54-.2.8-.3.17-.06.33-.12.43.14.11-.25.29-.35.49-.43.42-.18.86-.25,1.31-.29,1.03-.09,2.07.02,3.09-.12.06-.06.16-.08.18-.02.03.06-.07.08-.13.07h0c-.77.22-1.55.31-2.35.35-.79.03-1.55.16-2.27.58.23.16.45.27.68.35,1.04.39,2.12.57,3.22.61.92.03,1.83.1,2.75-.02,1.46-.18,2.87-.56,4.26-.99,1.09-.33,2.19-.53,3.33-.46,1.91.11,3.81.28,5.69.65.25.05.5.12.75.18-.54.16-1.07.3-1.57.52-1.9.83-2.9,2.34-3.23,4.32-.22,1.33.07,2.62.61,3.85.19.43.42.84.53,1.29.4,1.65.73,3.32,1.22,4.94.78,2.58,1.92,5,3.42,7.24,1.25,1.86,2.7,3.54,4.56,4.82.58.4,1.18.74,1.9.82.39.04.56-.11.53-.5,0-.1-.02-.21-.04-.31-.01-.1.01-.13.12-.13.33-.02.46-.16.5-.5.03-.3.02-.59-.05-.88-.01-.05-.07-.13,0-.15.43-.09.33-.44.34-.71.04-.56-.11-1.09-.28-1.62-.72-2.22-1.36-4.47-1.94-6.73-.28-1.08-.55-2.16-.63-3.29-.1-1.4-.17-2.81-.18-4.21,0-.73,0-1.45.02-2.18,0-.16.02-.25.23-.15,1.9.92,3.86,1.71,5.83,2.45,1.58.59,3.17,1.16,4.83,1.54,1.87.43,3.76.67,5.67.78.79.05,1.58.05,2.44.05-.17-.1-.29-.09-.41-.11ZM10.14,12.61c.28-.06.57-.06.86-.07.42,0,.84.03,1.24.16.21.07.28.18.24.41-.15.89-.86,1.24-1.65.81-.36-.19-.67-.45-.9-.78-.22-.32-.16-.45.21-.53ZM9.8,16.43c.46-.29.95-.49,1.51-.43.2.02.35.1.42.29.07.19-.04.33-.17.45-.15.14-.31.23-.51.11-.22-.13-.47-.14-.72-.14-.13.01-.27.03-.4.04-.1,0-.2,0-.24-.11-.03-.1.03-.16.11-.21ZM6.9,13.65c.56-.18,1.14-.25,1.67-.28.7,0,1.1.43,1.01,1.03-.05.35-.24.48-.59.37-.57-.19-1.12-.43-1.74-.42-.18,0-.33-.1-.46-.22-.22-.2-.18-.39.11-.48ZM1.71,17.53c-.1.03-.22-.02-.27-.12-.05-.11.03-.18.1-.24.28-.29.59-.52,1.02-.51.14.02.29.03.42.07.22.06.44.14.4.43-.04.27-.39.53-.63.45-.35-.12-.68-.17-1.04-.08ZM2.85,19.87c-.12.04-.18-.04-.23-.11-.09-.13-.1-.28-.12-.44.01-.37.22-.63.51-.83.13-.09.23-.03.31.09.26.38-.03,1.17-.47,1.3ZM3.46,15.33c-.13-.01-.24-.03-.34-.09-.13-.08-.17-.19-.07-.31.41-.46.86-.89,1.46-1.1.19-.07.39-.07.51.12.12.18.04.35-.09.49-.41.43-.89.75-1.48.9ZM5.5,16.52c.47-.36,1.06-.38,1.6-.03-.47.09-.88.26-1.24.55-.37.29-.6.68-.72,1.18-.23-.76-.1-1.35.36-1.7ZM6.64,18.76c-.41.19-.8.13-1.15-.16-.18-.15-.21-.3-.11-.5.32-.64.82-1.08,1.49-1.3.42-.14.54-.05.62.39.02.11.02.23.03.29,0,.67-.37,1.04-.88,1.28ZM8.97,20.08c-.2.12-.43.15-.65.17-.22,0-.42-.07-.61-.16-.18-.09-.19-.22-.07-.37.36-.43,1.05-.42,1.39.02.12.16.08.26-.07.34ZM9.7,18.32c-.11.06-.23.09-.36.08-.15,0-.24-.08-.21-.24.1-.49.08-.75.78-.73.18,0,.37,0,.53.12.1.08.18.18.16.32-.03.15-.13.24-.28.25-.23.01-.42.1-.62.2ZM12.05,18.93c-.24.42-.64.46-1.06.47-.02,0-.04,0-.06,0-.17-.02-.39.08-.47-.16-.08-.24.17-.26.29-.36.19-.15.39-.27.59-.4.11-.07.23-.13.37-.14.17,0,.33.03.42.19.09.15-.02.27-.09.39ZM12.7,16.86c-.42.22-.67.05-.64-.61-.03-.57.28-1.18.83-1.68.36-.32.58-.4.83-.24.3.2.5.76.32,1.08-.33.58-.72,1.13-1.34,1.45ZM14.09,18.25c-.2.08-.4.18-.6.26-.13.05-.26.04-.36-.09-.1-.12-.01-.22.05-.31.21-.28.43-.56.65-.83.16-.19.38-.24.61-.26.16-.01.25.06.24.28-.05.37-.14.77-.59.94ZM15.16,15.51c-.18.05-.25-.1-.32-.23-.23-.42-.45-.84-.74-1.21-.12-.15-.05-.25.11-.3.26-.07.47.03.65.2.35.32.46.73.48,1.22,0,.11-.02.27-.18.31ZM15.85,13.92c-.3-.2-.6-.4-.89-.61-.13-.09-.11-.18.04-.24.12-.05.24-.05.43-.06.34-.02.6.2.79.55.06.12.06.21-.03.3-.1.09-.21.15-.33.06ZM16.92,15.87c-.04.3-.14.59-.31.85-.11.17-.22.18-.36.03-.22-.24-.27-.54-.11-.83.09-.16.2-.3.29-.46.12-.23.24-.16.36-.02.1.12.16.26.14.42ZM18.01,15c-.14.06-.24.01-.32-.1-.2-.28-.4-.55-.59-.83-.03-.05-.08-.11-.03-.18.05-.06.11-.06.18-.06.5.01.89.38.94.86.02.16-.04.25-.18.31ZM19.28,16.27c0,.43-.44,1.01-.83,1.11-.08.02-.15.02-.21-.04-.07-.07-.08-.16-.03-.24.24-.4.49-.79.69-1.21.05-.1.14-.1.21-.02.11.11.19.24.17.39ZM20.31,8.78c-.09,0-.2,0-.32,0-.11,0-.23-.03-.25-.15-.01-.12.1-.17.2-.21.45-.14.85-.37,1.27-.57.24-.11.58-.26.73-.03.13.2-.2.37-.36.53-.35.35-.78.44-1.28.42ZM25.23,2.27c.06.05.15.08.12.17-.03.09-.12.08-.2.08-.22,0-.44,0-.69,0-.42.04-.86,0-1.29-.17-.07-.03-.15-.05-.17-.14-.02-.11.08-.16.16-.18.71-.16,1.43-.31,2.07.23ZM23.45,1.39c.37-.24.79-.18,1.09.16-.34.1-.68.12-1.01.16-.09.01-.17-.04-.2-.13-.04-.11.06-.15.13-.19ZM24.69,3.99c-.14.09-.31.15-.49.14-.14,0-.25-.03-.29-.18-.08-.29.38-.78.67-.7.2.05.48.08.52.29.04.24-.24.34-.42.45ZM25.99,3.83c.23-.09.21.11.24.22,0,.37-.6.95-.94.94-.18,0-.23-.15-.31-.26-.07-.11-.04-.21.05-.31.26-.3.6-.46.97-.59ZM22.92,5.67c-.2,0-.38-.06-.46-.23-.09-.19.09-.31.2-.4.39-.3.72-.73,1.3-.69.09,0,.21-.05.26.06.05.1-.02.19-.08.26-.25.31-.44.67-.82.87-.13.07-.25.13-.4.13ZM23.07,6.9c-.12.46-.73.77-1.23.58.32-.28.62-.55.93-.81.07-.06.18-.06.27.02.06.06.05.14.03.21ZM22.3,4.8c-.17-.01-.41.01-.41-.24,0-.2.16-.29.36-.28.18.01.35.03.36.27,0,.2-.14.26-.3.25ZM23.66,2.82c.11-.04.25-.06.35.05.08.1.04.22,0,.33-.18.56-.72,1.05-1.18,1.05-.18.02-.31-.08-.41-.23-.11-.16,0-.29.09-.41.27-.43.71-.62,1.15-.79ZM22.09,3.44c-.17,0-.28-.11-.34-.26-.03-.06.4-.49.48-.49.1,0,.27.16.28.29,0,.14-.27.47-.41.47ZM22.06,2.45c-.24.13-.5.24-.77.3-.17.04-.53-.19-.59-.37-.02-.05-.02-.1.01-.13.25-.22.51-.43.83-.49.29.03.49.17.61.4.07.13.01.22-.1.28ZM21.16,4.18c.09-.11.18-.22.28-.32.12-.12.26-.1.38,0,.12.11.12.23.02.35-.13.17-.3.29-.53.31-.1-.02-.25,0-.3-.1-.06-.11.08-.18.14-.25ZM21.47,5.05c.1-.08.22-.11.35-.1.12.01.27.01.32.15.05.13-.07.2-.14.29-.26.31-.6.46-1,.46-.06,0-.12,0-.17-.01-.06-.01-.14,0-.16-.09-.02-.07.05-.09.1-.13.24-.19.48-.38.72-.56ZM22.35,5.95c.15-.03.35-.15.44.03.08.15-.08.29-.2.4-.28.25-.58.47-.89.68-.29.19-.6.29-1.02.25-.08-.02-.31.08-.37-.08-.06-.2.19-.26.32-.34.56-.34,1.05-.8,1.72-.94ZM20.5,7.53c.05,0,.12.01.14.07.02.07-.03.1-.07.14-.53.5-1.65.65-2.29.29-.06-.03-.14-.05-.14-.13,0-.09.09-.12.15-.15.3-.17.73-.24,1.48-.23.24,0,.48,0,.72,0ZM23.74,7.59c-.29.48-.54,1-1.1,1.22-.13.05-.27.09-.37.12-.06,0-.09,0-.12-.01-.11-.03-.27,0-.31-.11-.04-.11.12-.14.19-.22.1-.12.22-.21.3-.34.28-.46.73-.67,1.19-.88.09-.04.19-.09.27-.01.07.07,0,.17-.04.23ZM23.3,6.4c-.04-.3.06-.55.29-.74.24-.2.49-.39.74-.58.11-.08.23-.2.39-.12.18.09.19.27.19.47.01.12-.02.25-.1.36-.25.34-.54.64-.87.91-.25.2-.6.03-.64-.29ZM25.15,7.26c-.03.34-.37.64-.75.65-.15.01-.21-.05-.17-.2.07-.31.5-.64.81-.62.12,0,.13.07.12.17ZM26.12,5.5c-.17.29-.34.57-.54.84-.2.29-.49.44-.76.49-.28,0-.31-.1-.24-.25.03-.07.07-.14.12-.2.34-.38.68-.75,1.02-1.12.01-.01.03-.03.04-.04.14-.09.29-.27.45-.14.18.14-.02.29-.09.42ZM27.32,3.88c-.13.22-.29.11-.44.03-.55-.3-1.13-.55-1.74-.71-.06-.02-.13-.04-.19-.07-.13-.06-.33-.11-.31-.25.03-.16.25-.03.32-.09.84-.02,1.53.26,2.16.69.14.09.32.19.19.41ZM25.38,1.92s.1-.07.15-.07c.66.06,1.33.12,1.7.79.03.06.12.12.05.2-.04.05-.12.05-.21.03-.46-.03-.83-.32-1.22-.55-.13-.08-.26-.17-.38-.25-.05-.04-.13-.08-.1-.15ZM28.93,3.4c.02.08.02.16-.06.2-.07.04-.13-.02-.17-.06-.17-.18-.32-.37-.52-.58.43-.06.68.11.75.45ZM27.98,3.5c.02.08.05.17-.03.24-.1.07-.16-.03-.21-.08-.16-.17-.32-.35-.49-.56.43-.06.64.07.73.4ZM27.72,2.38s0,.05-.03.07c-.05.03-.09,0-.12-.04-.24-.23-.48-.46-.72-.7-.06-.06-.11-.14.03-.16.26-.05.86.52.84.82ZM25.32.7c.03-.12.16-.07.25-.06.42.05.78.22,1.11.47.07.05.17.1.16.22-.13.03-.24-.04-.35-.08-.33-.12-.66-.24-.99-.36-.09-.03-.2-.1-.18-.19ZM25.35,1.1c.46.03.8.25,1.13.51.05.04.1.1.06.17-.03.06-.11.1-.17.08-.46-.15-.94-.16-1.41-.23-.05,0-.11-.04-.16-.07-.1-.06-.24-.1-.23-.23.01-.13.16-.14.27-.16.18-.03.36-.06.51-.08ZM23.46.36c.36-.17.73-.23,1.08.02.05.04.13.07.12.15-.01.09-.1.07-.16.08-.32.05-.6.25-.86.21-.29-.03-.63.01-.65-.14-.03-.21.29-.23.47-.32ZM22.92,1.47c-.09.04-.18.08-.27.07-.46-.01-.89-.15-1.35-.41.62-.23,1.13-.11,1.63.1.14.06.16.17,0,.24ZM22.46.58s.12.08.08.16c-.03.07-.1.03-.15.02-.36-.07-.73-.04-1.14-.18.4-.25.98-.23,1.22,0ZM19.69,1.3c.31-.28.95-.31,1.28-.05.13.1.18.21-.01.29-.24.11-.49.2-.71.29-.25-.06-.43-.15-.59-.29-.1-.08-.06-.16.03-.24ZM18.7,2.26c.32-.38.56-.63,1.14-.13.35.31.74.57,1.06.91.08.08.16.19.12.3-.06.14-.21.11-.28.12-.3-.01-.52-.11-.76-.2-.38-.15-.76-.3-1.14-.46-.3-.13-.34-.3-.14-.55ZM17.97,3.4c.2-.31.38-.37.73-.24.38.14.74.3,1.12.43.21.08.44.13.66.19.13.04.31.03.33.17.03.16-.14.23-.26.31-.24.16-.5.27-.77.36-.42.14-.84.23-1.2.26-.53,0-.67-.1-.75-.54-.06-.32-.04-.65.14-.94ZM17.96,5.43c.2-.06.41-.08.62-.13.47-.11.93-.23,1.36-.43.23-.11.48-.18.75-.17.08,0,.16.01.19.09.03.07,0,.14-.05.18-.74.58-1.45,1.23-2.47,1.27-.24,0-.47-.06-.6-.31-.13-.24-.06-.43.21-.51ZM17.78,6.91c0-.2.12-.29.31-.31.52-.05,1.04-.12,1.56-.23.3-.06.56-.25.87-.27.12,0,.24-.02.37.06-.78.81-1.72,1.13-2.8,1.06-.18-.01-.3-.12-.3-.32ZM18.21,8.74s-.09-.08-.06-.15c.03-.07.1-.06.15-.04.36.12.75.15,1.12.23.07.01.18.02.18.11,0,.11-.11.11-.19.13-.1.02-.21.03-.29.05-.34-.05-.68-.04-.91-.32ZM19.98,10.02c-.13.07-.26.13-.45.13-.02,0-.09,0-.15-.04-.17-.09-.44-.17-.37-.4.07-.2.3-.04.46-.01.17.03.33.09.49.14.04.01.1.01.1.08,0,.06-.05.08-.09.1ZM21.29,16.53c-.12.05-.23.03-.3-.07-.21-.29-.42-.59-.63-.88-.1-.15-.02-.2.13-.21.49-.03.98.42.97.92.02.13-.05.2-.17.25ZM19.63,9.34c.06-.11.19-.13.29-.15.44-.05.85-.19,1.28-.28.09-.02.17-.04.25-.01.11.03.18.09.05.19-.39.32-1.5.48-1.87.25ZM28.41,37.41c.03.4-.02.44-.42.44-.65,0-1.15-.23-1.43-.85-.03-.08-.09-.15-.14-.22-.53-.73-.51-1.26.09-1.92.23-.25.43-.6.87-.48.44.12.79.58.84,1.06.06.66.12,1.31.18,1.97ZM26.9,40.38c-.07.25-.17.49-.45.54-.28.05-.45-.16-.54-.38-.27-.6-.52-1.21-.68-1.85-.09-.36.09-.62.42-.62.36,0,.61.19.73.53.17.49.32.98.49,1.47.04.1.06.21.03.31ZM27.22,41.19c.38.44.63.97.95,1.45.02.03.03.09.02.13-.03.18-.68.71-.88.71-.15-.01-.26-.1-.33-.25-.23-.5-.43-1.01-.61-1.54-.11-.33.18-.44.37-.59.19-.15.34-.06.47.08ZM23.73,34.62c.07-.04.13-.03.18.02.2.23.35.47.39.78-.01.06-.02.11-.03.17-.04.13-.04.33-.19.35-.15.03-.17-.17-.25-.27-.09-.11-.17-.23-.25-.35-.12-.19-.03-.58.15-.7ZM23.34,32.64c0-.24.2-.45.44-.43.32.03.23.32.3.48,0,.3-.15.48-.37.48-.19,0-.37-.26-.37-.54ZM24,34.13c-.07-.18-.07-.37-.02-.56.11-.44.47-.58.79-.27.56.55.83,1.27.97,1.97,0,.37-.19.48-.46.34-.62-.32-1.05-.82-1.28-1.48ZM24.47,35.94c.06-.35.24-.42.5-.19.52.45.95.99,1.25,1.62.1.21-.03.37-.31.36-.18-.07-.38-.01-.57.01-.31.04-.5-.1-.65-.36-.25-.46-.29-.94-.21-1.44ZM25.92,34.7c-.21-.34-.46-.68-.47-.96,0-.55.24-.7.6-.5.14.08.27.19.37.31.44.52.43.7-.17,1.17-.11.08-.25.11-.33-.01ZM25.38,32.82c-.33,0-.58-.13-.78-.4-.21-.29-.45-.57-.66-.86-.1-.13-.16-.28-.15-.45.01-.23.13-.4.33-.5.18-.1.35,0,.5.11.16.13.3.27.4.44.24.4.46.81.64,1.24.13.32.05.43-.28.42ZM24.09,28.78c-.14.05-.22-.07-.3-.17-.24-.33-.49-.65-.74-.98-.06-.08-.18-.15-.12-.27.07-.12.21-.12.31-.13.13,0,.25,0,.34.09.32.31.56.67.63,1.12.02.13.03.29-.13.34ZM22.59,26.97c-.14-.01-.31-.1-.46-.22-.39-.29-.76-.6-1.23-.77-.18-.07-.27-.22-.25-.41.02-.18.15-.25.31-.29.57-.13,1.07-.08,1.46.43.2.26.4.51.53.81.13.3,0,.46-.37.45ZM20.98,26.49c.25.14.51.27.71.47.08.08.19.18.15.32-.04.14-.18.16-.3.18-.37.05-.74.1-1.11.15-.35,0-.66-.09-.95-.29-.21-.16-.23-.3-.08-.5.46-.59.92-.69,1.57-.33ZM21.4,28.07c.05-.18.24-.16.38-.19.1-.02.21-.04.28-.05.29,0,.49.13.67.29.42.39.81.81,1.13,1.28.14.21.32.5.15.7-.17.21-.44,0-.65-.09-.28-.12-.52-.31-.74-.53-.34-.34-.68-.66-1.02-1-.12-.12-.24-.25-.19-.42ZM23.12,30.89c.17.24.38.45.42.69.02.25-.08.36-.23.43-.14.06-.29.04-.39-.08-.3-.34-.6-.69-.89-1.04-.12-.14-.07-.24.09-.3.37-.14.76-.03,1.01.3ZM22.96,33.03c.28.19.43.47.5.83-.02.08-.04.18-.09.27-.11.22-.28.23-.41.02-.15-.24-.29-.49-.43-.74-.07-.12-.09-.23.04-.32.12-.08.24-.17.39-.06ZM23.05,36.19c.01-.17.02-.34.04-.51.02-.15.11-.21.23-.1.41.37.73.81.85,1.35.05.23-.09.4-.31.49-.21.09-.39.03-.53-.15-.24-.32-.33-.68-.29-1.08ZM24.06,37.84c.28.04.49.2.65.43.15.21.24.46.32.7.13.37.02.51-.38.51-.16,0-.31-.05-.39-.2-.18-.35-.36-.69-.52-1.05-.11-.26.03-.43.31-.39ZM24.98,39.81c.23,0,.41.11.49.33.24.65.47,1.31.69,1.96.08.22-.05.32-.25.29-.26-.04-.5-.06-.74.1-.12.08-.19-.07-.21-.16-.14-.66-.42-1.26-.61-1.9-.1-.33.21-.63.63-.62ZM28.09,33.66s-.02.12-.02.19c-.01.25-.15.26-.33.16-.57-.32-1.06-.72-1.34-1.32-.19-.41-.03-.8.15-1.18.05-.1.16-.1.25-.08.12.02.23.08.3.16.53.58.98,1.2.99,2.06ZM26.7,28.82c.31.65.59,1.32.88,1.98.03.07.04.15.06.21,0,.09-.03.17-.1.21-.09.06-.17,0-.23-.05-.23-.17-.36-.42-.5-.66-.29-.47-.55-.96-.87-1.41-.14-.2-.22-.42-.24-.67-.02-.24.1-.32.32-.24.31.12.55.33.69.62ZM25.35,26.29c.02-.13.1-.14.24-.14.2.03.38.14.51.33.18.26.25.55.29.85.03.19-.07.24-.24.19-.41-.11-.86-.82-.8-1.23ZM25.08,28.53c.48.68,1.07,1.31,1.17,2.19,0,.08,0,.15.02.25-.04.22.04.56-.21.65-.22.09-.37-.22-.52-.38-.47-.5-.96-1-1.02-1.74-.03-.31-.06-.61.11-.89.12-.19.34-.25.45-.08ZM22.7,24.95c.09-.14.26-.19.43-.22.36.08.64.29.84.59.37.56.63,1.17.85,1.8.03.09.1.21,0,.3-.11.1-.22-.02-.3-.07-.53-.31-.95-.72-1.21-1.29-.12-.28-.28-.54-.47-.78-.07-.1-.25-.17-.14-.33ZM20.62,24.17c.48-.26,1.38-.06,1.73.37.06.08.11.15.05.26-.06.1-.15.14-.32.12-.43-.2-.96-.24-1.46-.4-.08-.03-.18-.07-.19-.16-.01-.11.1-.15.18-.19ZM19.07,25.75c.12-.49.51-.8,1.02-.8.16,0,.33.01.38.19.05.2-.13.25-.26.31-.31.15-.62.29-.91.48-.06.04-.12.12-.2.04-.07-.06-.04-.14-.02-.22ZM18.57,28.26c-.2.12-.29.06-.29-.23.03-.25.16-.49.38-.67.17-.14.65.05.69.27.01.07-.02.11-.07.14-.24.16-.47.33-.71.48ZM18.77,29.01c-.03-.34.12-.55.46-.62.17-.03.34-.04.51-.07.93,0,1.63.42,2.17,1.14.05.07.1.14.16.2.22.27.16.42-.18.47-.18.03-.37.02-.52-.1-.53-.42-1.15-.52-1.8-.56-.09,0-.17,0-.26,0-.38,0-.51-.12-.54-.48ZM19.36,30.94c.03-.32.06-.66.38-.81.41-.18.82-.08,1.16.18.36.27.63.64.91.98.23.28.45.57.67.86.1.13.12.27.03.42-.09.15-.23.18-.39.18-.24-.01-.42-.12-.58-.28-.44-.44-.95-.71-1.58-.8-.48-.06-.63-.26-.61-.73ZM20.64,36.34c-.21-.54-.35-1.11-.42-1.69-.07-.55-.22-1.08-.33-1.62-.02-.09-.03-.19-.04-.23,0-.45.24-.62.66-.48.56.18,1.02.51,1.41.95.22.25.4.53.54.83.16.32.13.61-.13.83-.48.42-.84.93-1.18,1.46-.18.29-.39.27-.51-.06ZM21.69,39.41c-.33-.47-.52-.99-.61-1.55-.04-.24.04-.46.21-.63.32-.34.61-.7.89-1.08.16-.22.33-.23.41,0,.3.91.71,1.79.93,2.72,0,.03,0,.06,0,.09.02.22-.09.37-.29.44-.29.1-.58.18-.88.26-.28.08-.51-.02-.67-.25ZM24.39,43.78c-.09.3-.23.33-.44.11-.46-.48-.78-1.05-1.12-1.61-.22-.37-.46-.72-.53-1.16-.11-.62.26-1.18.88-1.29.22-.04.42,0,.57.18.28.34.89,2.08.88,2.66-.01.3-.12.71-.23,1.11ZM26.35,45.78c-.07.07-.14.13-.21.19-.32.26-.55.24-.79-.11-.41-.6-.64-1.25-.64-1.98,0-.04,0-.08,0-.11.01-.63.12-.82.53-.96.49-.17,1.01-.03,1.31.38.33.45.58.94.8,1.45.14.33.06.46-.27.61-.28.13-.51.33-.73.55ZM30.09,49.73c-.14.15-.32,0-.44-.07-.98-.53-1.91-1.13-2.7-1.92-.24-.24-.42-.52-.41-.88.02-.51.48-1.09.98-1.23.27-.07.44.07.59.25.35.41.61.88.87,1.34.38.67.83,1.31,1.08,2.04.05.15.16.33.03.46ZM31.09,46.54c0,.63-.26.83-.74.59-1.09-.55-2.06-1.25-2.55-2.43-.25-.61.05-1.13.7-1.25.18-.03.32.06.44.17.5.45.99.9,1.47,1.36.47.45.61,1.04.67,1.57ZM28.83,38.97c.22.72.4,1.45.66,2.16.02.05.04.11.04.17.06.36,0,.42-.36.42-.11,0-.21,0-.32,0-.71.14-1.09-.27-1.38-.83-.3-.57-.51-1.17-.61-1.81-.1-.6.12-.87.72-.88.09,0,.17,0,.26,0,.6.03.81.2.98.77Z"/>
      <path class="cls-1" d="M80.5,35.78c-.42-1.21-1-2.33-2.01-3.17-.73-.61-1.53-1.1-2.38-1.53-.7-.36-1.35-.81-1.78-1.49-.1-.16-.16-.13-.31-.06-.87.46-1.79.82-2.74,1.08-.23.06-.3.1-.21.36.21.58-.06,1.21-.72,1.34-.45.08-.9.19-1.35.28-.86.16-1.73.28-2.62.37.15.26.31.49.39.75.13.43-.02.67-.47.71-.33.03-.67.06-1,.07-.46.01-.93,0-1.39,0,0,.03,0,.06-.01.09.04.03.07.05.11.08.75.46,1.49.93,2.25,1.38,1.69,1.01,3.41,1.96,5.07,3.02,1.15.74,2.33,1.41,3.67,1.76,1.42.37,2.82.43,4.23-.06,1.13-.4,1.73-1.19,1.74-2.38,0-.89-.17-1.75-.46-2.58ZM78.97,34.3c.26,0,.41.09.53.25.21.3.35.63.51.96.03.05.05.11,0,.16-.05.06-.12.05-.18.02-.48-.25-.93-.53-1.3-.93-.16-.17-.1-.32.12-.39.12-.04.24-.05.32-.07ZM72.49,35.97c.48,0,.95.08,1.35.37.09.07.15.17.14.3,0,.27-.21.45-.47.4-.54-.1-.82-.52-1.11-.92-.07-.1,0-.15.09-.15ZM72.23,35.01c.03-.11.11-.11.21-.09.32.08.65.15.77.54.02.07.08.14,0,.21-.06.06-.12.02-.19,0-.16-.04-.31-.07-.47-.11-.18-.05-.37-.37-.32-.54ZM73.5,35.42c-.17-.27-.1-.4.22-.42.05,0,.1,0,.18,0,.49.05,1.01.1,1.51.3.23.09.25.21.09.38-.06.06-.13.12-.18.19-.4.57-.73.47-1.25.16-.24-.15-.42-.36-.56-.6ZM74.51,33.37c.06-.27.25-.38.68-.37.19.01.36.11.51.25.36.32.7.64,1.06.97.16.15.17.26,0,.42-.35.3-.71.48-1.17.26-.04-.02-.09-.02-.14-.03-.81-.19-1.1-.66-.92-1.48ZM74.21,36.97c.14-.14.32-.16.51-.18.35.05.68.19.97.41.07.05.12.12.06.22-.11.17-.23.37-.46.32-.37-.07-.72-.23-1.06-.4-.18-.09-.16-.23-.02-.37ZM75.52,36.7c-.14-.1-.24-.28-.12-.48.11-.19.46-.36.67-.27.52.23,1.02.52,1.5.84.15.1.18.29.18.47,0,.25-.23.44-.47.35-.63-.21-1.21-.52-1.75-.9ZM75.91,37.83c.14-.28.4-.4.66-.28.29.14.58.28.87.42.19.1.32.24.3.45-.02.59-.28.72-.77.44-.27-.16-.57-.27-.85-.41-.28-.14-.34-.34-.21-.61ZM76.99,35.97c-.27-.24-.26-.41-.01-.68.41-.44.62-.48,1.14-.18.47.27.93.56,1.4.84.21.13.45.25.34.57-.09.26-.27.37-.73.37-.75-.08-1.5-.36-2.14-.92ZM77.61,32.99c.31.2.6.44.9.66.15.11.15.2,0,.3-.43.25-.87.35-1.32.07-.35-.21-.66-.48-.94-.79-.1-.11-.25-.23-.19-.39.06-.17.25-.19.41-.21.06,0,.11-.01.17-.02.37.01.68.18.98.37ZM75.34,31.61c.43.02.8.21,1.14.47.09.07.05.15-.02.21-.18.15-.39.23-.66.24-.3-.03-.55-.23-.77-.45-.14-.14.08-.49.32-.48ZM73.99,31.03c.05-.13.2-.13.31-.15.57.06.75.23.6.64-.06.15-.14.22-.3.09-.14-.12-.29-.21-.43-.33-.08-.07-.23-.12-.18-.26ZM72.47,31.2c.43-.01.84.12,1.24.28.3.12.52.35.72.59.13.16.08.26-.1.31-.24.07-.49.09-.73.09-.81.02-1.18-.19-1.44-.82-.12-.29-.03-.44.31-.45ZM73.89,33.67c-.05.07-.12.14-.21.11-.29-.11-.61-.16-.85-.38-.12-.11-.26-.23-.19-.41.07-.18.23-.24.41-.25.06,0,.11,0,.17,0,0,0,0,0,0,0,.09,0,.19,0,.28.02.44.07.64.55.39.92ZM71.03,33.37c.19,0,.49.34.46.51-.03.16-.12.28-.31.26-.22-.02-.46-.26-.43-.45.02-.16.07-.33.28-.32ZM68.88,33.28c.2-.3.44-.39.81-.33.2.04.39.07.58.16.17.08.24.22.19.4-.04.18-.18.23-.35.21-.37-.04-.74-.07-1.11-.12-.2-.03-.25-.14-.13-.32ZM66.77,35.27c-.19-.23-.08-.65.25-.9.44-.34.96-.45,1.35-.43.65.03,1.13.09,1.61.19.16.03.3.11.34.26.05.18-.13.24-.24.32-.15.11-.33.14-.51.17-.55.1-1.07.24-1.53.59-.36.27-.99.16-1.27-.19ZM71.6,37.29c-.04.59-.13.82-.84.57-.81-.29-1.55-.78-2.22-1.34-.23-.19-.2-.44.07-.7.55-.53,1.19-.78,1.96-.58.2.05.41.1.59.21.18.11.3.26.34.47.06.36.12.72.11,1.08,0,.1,0,.19,0,.29ZM71.69,35.1c-.07.09-.16.06-.26.03-.2-.07-.4-.12-.59-.19-.11-.04-.29-.06-.24-.25.04-.19.16-.3.37-.28.3.03.58.1.73.4.05.1.07.2,0,.29ZM71.84,34.26c-.12-.16-.17-.35-.08-.54.09-.17.28-.2.45-.18.63.07,1.19.31,1.69.71.1.08.19.18.14.32-.04.13-.16.16-.27.18-.21.04-.42.06-.61.08-.41-.03-.78-.16-1.12-.36-.08-.05-.14-.13-.2-.2ZM74.55,38.63c-.1.16-.19.33-.29.49-.19.29-.38.37-.7.28-.42-.12-.8-.31-1.15-.57-.28-.21-.33-.5-.29-.82-.02-.34-.05-.67-.07-1-.01-.24.09-.32.29-.2.69.4,1.44.71,2.1,1.17.28.2.29.36.1.65ZM77.44,40.48c-.23.07-.47.09-.71.08-.47-.04-.95-.07-1.41-.22-.77-.24-.78-1.32-.36-1.71.16-.15.33-.21.55-.12.56.23,1.1.49,1.61.8.28.17.43.46.59.73.1.18-.01.36-.26.44ZM79.55,39.9c-.24.18-.52.28-.82.3-.28-.02-.48-.16-.57-.43-.09-.28-.12-.56.07-.81.08-.11.21-.09.32-.06.31.08.63.17.93.28.39.16.42.47.08.72ZM80.29,38.35c-.04.24-.27.37-.64.37-.1,0-.21-.02-.31-.07-.4-.19-.81-.38-1.2-.59-.23-.12-.28-.36-.16-.67.09-.23.27-.22.45-.17.51.12,1.01.26,1.52.4.27.08.41.38.35.73Z"/>
      <path class="cls-1" d="M76.94,23.1c-.27.09-.56.14-.84.2-.24.05-.36-.1-.43-.29-.07-.19.11-.25.23-.3.27-.13.54-.23.81-.35.06-.03.2-.01.15-.15-.05-.11-.13-.15-.25-.08-.07.04-.16.05-.24.09-.14.06-.27.07-.34-.09-.07-.15-.03-.28.07-.4.05-.06.16-.03.17-.14-.27-.2-.55-.36-.92-.26-.18.05-.38.05-.57.06-.14,0-.32.04-.39-.11-.07-.16.11-.24.19-.35,0-.01,0-.03.02-.07-1.76-.67-3.53-1.33-5.3-2,.45.43.94.8,1.41,1.18.14.11.23.13.4.05.36-.18.57-.13.8.13-.23.1-.47.12-.74.18.39.31.7.68,1.24.61.12-.02.24.03.37.06.05,0,.1.02.09.08,0,.03-.04.07-.07.08-.12.06-.24.12-.37.18.19.22.39.32.67.3.39-.03.4,0,.32.37-.03.15.03.26.16.2.38-.15.79-.13,1.18-.22.23-.05.47-.09.7-.13.17-.03.29.05.37.2.08.16-.01.26-.11.35-.07.07-.15.12-.23.17-.31.19-.65.29-1,.41.11.17.23.19.4.11.22-.11.45-.14.67.04.23.19.23.27-.04.38-.09.04-.17.07-.28.12.31.35.37.47.51.91.02.07.03.14.12.18.36.17.76.09,1.01-.22.3-.36.36-.79.36-1.24,0-.22-.04-.32-.3-.24ZM71.94,20.56c-.14-.13-.11-.19.06-.24.37-.12.57-.07.84.23-.32,0-.58.29-.89,0ZM72.96,20.94c-.1-.03-.26.07-.3-.08-.03-.13.11-.19.2-.25.28-.18.45-.17.59.05.08.13.08.21-.1.23-.13.01-.27.03-.4.04ZM73.28,21.56c-.1,0-.19-.02-.23-.13-.04-.12,0-.24.1-.3.27-.16.57-.23.87-.25.17,0,.14.11.1.22-.11.3-.42.46-.85.46ZM73.87,22.01c-.09,0-.22-.02-.22-.14,0-.09.11-.13.19-.15.43-.14.87-.22,1.32-.26.08,0,.15.02.25.1-.48.34-.98.5-1.53.45ZM77.01,23.98c-.12.32-.37.52-.66.51-.11,0-.23-.03-.33-.11-.13-.1-.29-.19-.28-.37,0-.19.2-.21.33-.26.18-.08.37-.15.56-.22.14-.05.29-.05.4.07.11.12.03.26-.02.38Z"/>
    </g>
  </g>
</svg>